<svg xmlns="http://www.w3.org/2000/svg" width="1200" height="1200" viewBox="0 0 1200 1200" role="img" aria-labelledby="title desc">
<title id="title">Coordinated compilation lanes and runtime join</title>
<desc id="desc">Verified source enters family interpretation, which projects distinct computation and parameter-package compilation lanes. Symbolic execution joins exact Transformation IR lineage and authenticated PEIR package terminals before physical program construction, compiled model planning and runtime binding. Deployment specialization then combines immutable binding truth with a real backend, device and resource policy.</desc>
<!-- Generated by tools/render_diagrams.py; source SHA-256 8adffefb1f604b85476c2ee2b9f160f6bfbf980cb8f933e1e3be0ca7a68ec9fc -->
<defs><style>text{fill:#161616}
.title{font-size:26px;font-weight:700}.panel-title{font-size:19px;font-weight:700}
.node-title{font-size:20px;font-weight:700}.body{font-size:18px}
.note,.legend{font-size:16px}.code{font-size:16px}
.tag{font-size:15px;font-weight:700;text-anchor:middle}
.label{font-size:16px}
.panel{fill:#f7f7f7;stroke:#a3a3a3;stroke-width:1}
.node{fill:#fff;stroke:#525252;stroke-width:1.5}
.external{stroke-dasharray:6 4}.runtime{stroke-width:2.5}.mutable{stroke-width:2}
.edge{fill:none;stroke:#292929;stroke-width:1.7;stroke-linejoin:round}</style>
<marker id="solid" markerWidth="8" markerHeight="8" refX="7" refY="4" orient="auto" markerUnits="userSpaceOnUse"><path d="M0 0L8 4L0 8Z" fill="#292929"/></marker>
<marker id="open" markerWidth="9" markerHeight="10" refX="8" refY="5" orient="auto" markerUnits="userSpaceOnUse"><path d="M1 1L8 5L1 9" fill="none" stroke="#292929" stroke-width="1.5"/></marker></defs>
<rect width="1200" height="1200" fill="#fff"/>
<text x="32" y="41" class="title" font-family="Liberation Sans, Arial, sans-serif">02  Coordinated compilation lanes and runtime join</text>
<path d="M32 57H1168" stroke="#161616" stroke-width="2"/>
<rect class="panel" x="24" y="82" width="1152" height="150"/>
<text x="38" y="109" class="panel-title" font-family="Liberation Sans, Arial, sans-serif">a  Verified source and family interpretation</text>
<rect class="panel" x="24" y="252" width="1152" height="400"/>
<text x="38" y="279" class="panel-title" font-family="Liberation Sans, Arial, sans-serif">b  Coordinated compilation — computation and parameter/package lanes</text>
<rect class="panel" x="24" y="682" width="1152" height="210"/>
<text x="38" y="709" class="panel-title" font-family="Liberation Sans, Arial, sans-serif">c  Identity-preserving join and immutable binding</text>
<rect class="panel" x="24" y="922" width="1152" height="155"/>
<text x="38" y="949" class="panel-title" font-family="Liberation Sans, Arial, sans-serif">d  Deployment and executable resources</text>
<polyline class="edge" points="340,172 450,172" stroke-dasharray="none" marker-end="url(#solid)"/>
<polyline class="edge" points="750,172 840,172" stroke-dasharray="none" marker-end="url(#solid)"/>
<polyline class="edge" points="1000,222 1000,270 360,270 360,300" stroke-dasharray="none" marker-end="url(#solid)"/>
<polyline class="edge" points="520,360 680,360" stroke-dasharray="none" marker-end="url(#solid)"/>
<polyline class="edge" points="600,222 1100,222 1100,475 165,475 165,500" stroke-dasharray="none" marker-end="url(#solid)"/>
<polyline class="edge" points="290,560 320,560" stroke-dasharray="none" marker-end="url(#solid)"/>
<polyline class="edge" points="570,560 600,560" stroke-dasharray="none" marker-end="url(#solid)"/>
<polyline class="edge" points="850,560 880,560" stroke-dasharray="none" marker-end="url(#solid)"/>
<polyline class="edge" points="840,420 1170,420 1170,700 165,700 165,730" stroke-dasharray="9 4 2 4" marker-end="none"/>
<polyline class="edge" points="1020,620 1020,680 165,680 165,730" stroke-dasharray="9 4 2 4" marker-end="none"/>
<polyline class="edge" points="290,790 320,790" stroke-dasharray="none" marker-end="url(#solid)"/>
<polyline class="edge" points="570,790 600,790" stroke-dasharray="none" marker-end="url(#solid)"/>
<polyline class="edge" points="850,790 880,790" stroke-dasharray="none" marker-end="url(#solid)"/>
<polyline class="edge" points="1020,850 1020,910 350,910 350,970" stroke-dasharray="none" marker-end="url(#open)"/>
<polyline class="edge" points="530,1020 670,1020" stroke-dasharray="none" marker-end="url(#solid)"/>
<g id="source"><rect class="node external" x="40" y="122" width="300" height="100"/>
<rect x="52" y="136" width="23" height="23" fill="#f7f7f7" stroke="#525252"/>
<text x="63.5" y="153" class="tag" font-family="Liberation Sans, Arial, sans-serif">X</text>
<text x="84" y="154" class="node-title" font-family="Liberation Sans, Arial, sans-serif">Verified source</text>
<text x="56" y="180" class="body" font-family="Liberation Sans, Arial, sans-serif">inventory · ranges · trust</text>
<text x="56" y="205" class="body" font-family="Liberation Sans, Arial, sans-serif">configuration + tokenizer</text>
</g>
<g id="family"><rect class="node semantic" x="450" y="122" width="300" height="100"/>
<rect x="462" y="136" width="23" height="23" fill="#f7f7f7" stroke="#525252"/>
<text x="473.5" y="153" class="tag" font-family="Liberation Sans, Arial, sans-serif">S</text>
<text x="494" y="154" class="node-title" font-family="Liberation Sans, Arial, sans-serif">Family interpretation</text>
<text x="466" y="180" class="body" font-family="Liberation Sans, Arial, sans-serif">irreducible source semantics</text>
<text x="466" y="205" class="body" font-family="Liberation Sans, Arial, sans-serif">roles · topology · numerics</text>
</g>
<g id="semantic"><rect class="node semantic" x="840" y="122" width="320" height="100"/>
<rect x="852" y="136" width="23" height="23" fill="#f7f7f7" stroke="#525252"/>
<text x="863.5" y="153" class="tag" font-family="Liberation Sans, Arial, sans-serif">S</text>
<text x="884" y="154" class="node-title" font-family="Liberation Sans, Arial, sans-serif">Semantic Model IR</text>
<text x="856" y="180" class="body" font-family="Liberation Sans, Arial, sans-serif">sealed model aggregate</text>
<text x="856" y="205" class="body" font-family="Liberation Sans, Arial, sans-serif">may retain native program</text>
</g>
<g id="typed"><rect class="node semantic" x="200" y="300" width="320" height="120"/>
<rect x="212" y="314" width="23" height="23" fill="#f7f7f7" stroke="#525252"/>
<text x="223.5" y="331" class="tag" font-family="Liberation Sans, Arial, sans-serif">S</text>
<text x="244" y="332" class="node-title" font-family="Liberation Sans, Arial, sans-serif">Native typed program</text>
<text x="216" y="358" class="body" font-family="Liberation Sans, Arial, sans-serif">functions · values · state</text>
<text x="216" y="383" class="body" font-family="Liberation Sans, Arial, sans-serif">operations · effects</text>
<text x="216" y="408" class="body" font-family="Liberation Sans, Arial, sans-serif">no payload or backend</text>
</g>
<g id="execution"><rect class="node semantic" x="680" y="300" width="320" height="120"/>
<rect x="692" y="314" width="23" height="23" fill="#f7f7f7" stroke="#525252"/>
<text x="703.5" y="331" class="tag" font-family="Liberation Sans, Arial, sans-serif">S</text>
<text x="724" y="332" class="node-title" font-family="Liberation Sans, Arial, sans-serif">Program Execution IR</text>
<text x="696" y="358" class="body" font-family="Liberation Sans, Arial, sans-serif">entry slots · dependencies</text>
<text x="696" y="383" class="body" font-family="Liberation Sans, Arial, sans-serif">effect order · last use</text>
<text x="696" y="408" class="body" font-family="Liberation Sans, Arial, sans-serif">parameters stay symbolic</text>
</g>
<g id="transform"><rect class="node semantic" x="40" y="500" width="250" height="120"/>
<rect x="52" y="514" width="23" height="23" fill="#f7f7f7" stroke="#525252"/>
<text x="63.5" y="531" class="tag" font-family="Liberation Sans, Arial, sans-serif">S</text>
<text x="84" y="532" class="node-title" font-family="Liberation Sans, Arial, sans-serif">Transformation IR</text>
<text x="56" y="558" class="body" font-family="Liberation Sans, Arial, sans-serif">source → terminal</text>
<text x="56" y="583" class="body" font-family="Liberation Sans, Arial, sans-serif">typed derivation recipe</text>
<text x="56" y="608" class="body" font-family="Liberation Sans, Arial, sans-serif">payload-free planning</text>
</g>
<g id="transform_binding"><rect class="node semantic" x="320" y="500" width="250" height="120"/>
<rect x="332" y="514" width="23" height="23" fill="#f7f7f7" stroke="#525252"/>
<text x="343.5" y="531" class="tag" font-family="Liberation Sans, Arial, sans-serif">S</text>
<text x="364" y="532" class="node-title" font-family="Liberation Sans, Arial, sans-serif">Transform binding</text>
<text x="336" y="558" class="body" font-family="Liberation Sans, Arial, sans-serif">verified ranges + IDs</text>
<text x="336" y="583" class="body" font-family="Liberation Sans, Arial, sans-serif">artifact lowering map</text>
<text x="336" y="608" class="body" font-family="Liberation Sans, Arial, sans-serif">payload separate</text>
</g>
<g id="variant"><rect class="node physical" x="600" y="500" width="250" height="120"/>
<path d="M605 505V615" stroke="#525252" stroke-width="3"/>
<rect x="612" y="514" width="23" height="23" fill="#f7f7f7" stroke="#525252"/>
<text x="623.5" y="531" class="tag" font-family="Liberation Sans, Arial, sans-serif">P</text>
<text x="644" y="532" class="node-title" font-family="Liberation Sans, Arial, sans-serif">Variant / artifact</text>
<text x="616" y="558" class="body" font-family="Liberation Sans, Arial, sans-serif">qtype · rows · layout</text>
<text x="616" y="583" class="body" font-family="Liberation Sans, Arial, sans-serif">writer + admission</text>
<text x="616" y="608" class="body" font-family="Liberation Sans, Arial, sans-serif">variant identity</text>
</g>
<g id="peir"><rect class="node physical" x="880" y="500" width="280" height="120"/>
<path d="M885 505V615" stroke="#525252" stroke-width="3"/>
<rect x="892" y="514" width="23" height="23" fill="#f7f7f7" stroke="#525252"/>
<text x="903.5" y="531" class="tag" font-family="Liberation Sans, Arial, sans-serif">P</text>
<text x="924" y="532" class="node-title" font-family="Liberation Sans, Arial, sans-serif">PEIR package truth</text>
<text x="896" y="558" class="body" font-family="Liberation Sans, Arial, sans-serif">authenticated terminals</text>
<text x="896" y="583" class="body" font-family="Liberation Sans, Arial, sans-serif">encoded ranges · sharing</text>
<text x="896" y="608" class="body" font-family="Liberation Sans, Arial, sans-serif">no live deployment facts</text>
</g>
<g id="join"><rect class="node semantic" x="40" y="730" width="250" height="120"/>
<rect x="52" y="744" width="23" height="23" fill="#f7f7f7" stroke="#525252"/>
<text x="63.5" y="761" class="tag" font-family="Liberation Sans, Arial, sans-serif">S</text>
<text x="84" y="762" class="node-title" font-family="Liberation Sans, Arial, sans-serif">Parameter join</text>
<text x="56" y="788" class="body" font-family="Liberation Sans, Arial, sans-serif">symbol ↔ lineage</text>
<text x="56" y="813" class="body" font-family="Liberation Sans, Arial, sans-serif">exact PEIR terminal</text>
<text x="56" y="838" class="body" font-family="Liberation Sans, Arial, sans-serif">distinct joined identity</text>
</g>
<g id="physical_program"><rect class="node physical" x="320" y="730" width="250" height="120"/>
<path d="M325 735V845" stroke="#525252" stroke-width="3"/>
<rect x="332" y="744" width="23" height="23" fill="#f7f7f7" stroke="#525252"/>
<text x="343.5" y="761" class="tag" font-family="Liberation Sans, Arial, sans-serif">P</text>
<text x="364" y="762" class="node-title" font-family="Liberation Sans, Arial, sans-serif">Physical program</text>
<text x="336" y="788" class="body" font-family="Liberation Sans, Arial, sans-serif">admitted impls</text>
<text x="336" y="813" class="body" font-family="Liberation Sans, Arial, sans-serif">physical contracts</text>
<text x="336" y="838" class="body" font-family="Liberation Sans, Arial, sans-serif">computational work</text>
</g>
<g id="compiled"><rect class="node semantic" x="600" y="730" width="250" height="120"/>
<rect x="612" y="744" width="23" height="23" fill="#f7f7f7" stroke="#525252"/>
<text x="623.5" y="761" class="tag" font-family="Liberation Sans, Arial, sans-serif">S</text>
<text x="644" y="762" class="node-title" font-family="Liberation Sans, Arial, sans-serif">Compiled plan</text>
<text x="616" y="788" class="body" font-family="Liberation Sans, Arial, sans-serif">programs + schedule</text>
<text x="616" y="813" class="body" font-family="Liberation Sans, Arial, sans-serif">derived impl plans</text>
<text x="616" y="838" class="body" font-family="Liberation Sans, Arial, sans-serif">execution identity</text>
</g>
<g id="binding"><rect class="node interface" x="880" y="730" width="280" height="120"/>
<rect x="892" y="744" width="23" height="23" fill="#f7f7f7" stroke="#525252"/>
<text x="903.5" y="761" class="tag" font-family="Liberation Sans, Arial, sans-serif">I</text>
<text x="924" y="762" class="node-title" font-family="Liberation Sans, Arial, sans-serif">Runtime binding</text>
<text x="896" y="788" class="body" font-family="Liberation Sans, Arial, sans-serif">authenticated truth</text>
<text x="896" y="813" class="body" font-family="Liberation Sans, Arial, sans-serif">package + program IDs</text>
<text x="896" y="838" class="body" font-family="Liberation Sans, Arial, sans-serif">no machine or residency</text>
</g>
<g id="deployment"><rect class="node runtime" x="170" y="970" width="360" height="100"/>
<rect x="182" y="984" width="23" height="23" fill="#f7f7f7" stroke="#525252"/>
<text x="193.5" y="1001" class="tag" font-family="Liberation Sans, Arial, sans-serif">R</text>
<text x="214" y="1002" class="node-title" font-family="Liberation Sans, Arial, sans-serif">Deployment specialization</text>
<text x="186" y="1028" class="body" font-family="Liberation Sans, Arial, sans-serif">real backend · device · resources</text>
<text x="186" y="1053" class="body" font-family="Liberation Sans, Arial, sans-serif">admitted implementation envelope</text>
</g>
<g id="engine"><rect class="node runtime" x="670" y="970" width="360" height="100"/>
<rect x="682" y="984" width="23" height="23" fill="#f7f7f7" stroke="#525252"/>
<text x="693.5" y="1001" class="tag" font-family="Liberation Sans, Arial, sans-serif">R</text>
<text x="714" y="1002" class="node-title" font-family="Liberation Sans, Arial, sans-serif">Engine generation</text>
<text x="686" y="1028" class="body" font-family="Liberation Sans, Arial, sans-serif">executable resource ownership</text>
<text x="686" y="1053" class="body" font-family="Liberation Sans, Arial, sans-serif">sessions · state · scheduling</text>
</g>
<text x="40" y="324" class="note" font-family="Liberation Sans, Arial, sans-serif">COMPUTATION</text>
<text x="40" y="486" class="note" font-family="Liberation Sans, Arial, sans-serif">PARAMETER / PACKAGE</text>
<path d="M32 1105H1168" stroke="#a3a3a3"/>
<text x="32" y="1131" class="legend" font-family="Liberation Sans, Arial, sans-serif">X external · I interface · S semantic · R runtime · M mutable · P physical · E evidence</text>
<path class="edge" d="M32 1162h36" stroke-dasharray="none" marker-end="url(#solid)"/>
<text x="78" y="1167" class="legend" font-family="Liberation Sans, Arial, sans-serif">data / result</text>
<path class="edge" d="M260 1162h36" stroke-dasharray="9 4 2 4" marker-end="none"/>
<text x="306" y="1167" class="legend" font-family="Liberation Sans, Arial, sans-serif">identity binding</text>
<path class="edge" d="M488 1162h36" stroke-dasharray="none" marker-end="url(#open)"/>
<text x="534" y="1167" class="legend" font-family="Liberation Sans, Arial, sans-serif">lifecycle / gate</text>
</svg>
